<?xml version="1.0" standalone="no"?>
<!DOCTYPE svg PUBLIC "-//W3C//DTD SVG 20010904//EN"
 "http://www.w3.org/TR/2001/REC-SVG-20010904/DTD/svg10.dtd">
<svg version="1.0" xmlns="http://www.w3.org/2000/svg"
 width="500.000000pt" height="500.000000pt" viewBox="0 0 500.000000 500.000000"
 preserveAspectRatio="xMidYMid meet">

<g transform="translate(0.000000,500.000000) scale(0.100000,-0.100000)"
fill="#000000" stroke="none">
<path d="M2905 2910 c1143 -1143 2080 -2078 2081 -2077 2 1 4 270 5 597 l2
595 -1479 1483 -1479 1483 -605 -1 -605 0 2080 -2080z m-577 1485 c43 -29 93
-91 106 -131 5 -18 1 -24 -24 -32 -28 -10 -31 -9 -44 21 -18 43 -73 95 -112
106 -70 19 -148 -20 -183 -92 -36 -74 -21 -144 40 -189 52 -39 64 -40 95 -7
l28 29 -29 30 -29 30 22 22 22 22 55 -54 55 -54 -62 -63 c-34 -35 -69 -63 -78
-63 -34 0 -118 50 -153 90 -76 89 -76 201 1 290 53 63 94 81 177 77 58 -2 78
-8 113 -32z m206 -251 c9 -8 16 -22 16 -29 0 -18 -27 -45 -45 -45 -19 0 -45
28 -45 49 0 38 45 54 74 25z m-89 -94 c19 -21 18 -22 -78 -118 l-96 -96 -26
24 -26 24 93 93 c51 51 98 93 104 93 6 0 19 -9 29 -20z m205 -40 l25 -19 -42
-43 -43 -44 22 -21 c21 -22 21 -23 3 -43 l-18 -20 -24 22 -24 22 -77 -77 -78
-78 -24 26 -24 26 77 77 c69 70 76 79 62 93 -14 14 -14 17 5 34 16 15 22 16
35 5 14 -12 22 -8 53 23 20 20 39 37 42 37 3 0 16 -9 30 -20z m122 -183 l-62
-62 52 -53 53 -52 62 62 63 62 25 -24 25 -25 -155 -155 -154 -154 -26 24 -26
24 71 71 70 71 -53 52 -53 52 -69 -70 -70 -70 -25 25 -25 25 155 155 155 155
25 -25 24 -25 -62 -63z m138 -383 c-75 -77 -84 -103 -48 -128 41 -29 66 -20
137 49 l68 65 21 -23 22 -23 -98 -97 c-95 -95 -99 -97 -115 -79 -10 11 -15 26
-11 36 5 12 0 16 -21 16 -33 0 -95 58 -95 90 0 34 18 60 93 137 l71 73 23 -22
23 -21 -70 -73z m348 -121 c-64 -65 -70 -73 -48 -73 57 0 120 -69 120 -131 0
-68 -79 -149 -147 -149 -67 0 -133 56 -133 113 0 25 -2 28 -16 17 -13 -11 -19
-10 -37 8 l-22 22 155 155 154 154 23 -21 24 -22 -73 -73z m497 -368 c41 -70
37 -115 -14 -166 -35 -35 -44 -39 -90 -39 -32 0 -53 -5 -56 -12 -2 -7 -14 -51
-26 -96 l-22 -84 -29 30 -30 29 28 87 27 88 -22 21 -21 21 -58 -57 -58 -57
-24 25 -24 26 154 154 155 155 43 -43 c24 -23 54 -60 67 -82z m81 -301 c62
-29 99 -107 74 -155 -7 -13 -24 -36 -38 -52 l-26 -27 -68 67 c-56 55 -70 65
-78 53 -5 -8 -10 -23 -10 -33 0 -20 54 -80 79 -88 10 -4 12 -13 7 -32 -7 -30
-22 -28 -74 11 -74 54 -93 137 -48 203 43 64 115 84 182 53z m199 -194 c15
-16 15 -22 5 -35 -11 -13 -9 -15 11 -15 65 0 127 -80 114 -148 -9 -48 -79
-117 -128 -126 -62 -12 -117 21 -147 86 l-16 37 -54 -54 c-30 -30 -59 -55 -66
-55 -6 0 -19 9 -29 20 -19 21 -17 23 125 165 80 80 150 145 156 145 6 0 19 -9
29 -20z m302 -298 c42 -29 67 -85 60 -133 -14 -102 -129 -161 -215 -109 -129
79 -69 280 79 267 26 -2 60 -13 76 -25z"/>
<path d="M3125 3175 c-53 -52 -27 -135 42 -135 45 0 93 46 93 87 0 66 -87 97
-135 48z"/>
<path d="M3592 2927 l-53 -54 36 -31 c38 -34 63 -39 98 -20 55 29 60 72 16
123 -17 19 -34 35 -38 35 -4 0 -30 -24 -59 -53z"/>
<path d="M3760 2600 c-12 -8 -7 -17 29 -54 48 -49 61 -50 61 -6 0 19 -9 35
-26 49 -29 23 -42 25 -64 11z"/>
<path d="M3984 2360 c-55 -22 -70 -95 -29 -135 32 -33 68 -32 104 3 46 41 50
75 13 112 -31 31 -51 35 -88 20z"/>
<path d="M4240 2123 c-28 -11 -59 -46 -65 -75 -8 -35 15 -75 49 -84 28 -7 81
18 96 45 14 27 13 74 -2 94 -15 18 -55 29 -78 20z"/>
</g>
</svg>
